<svg xmlns="http://www.w3.org/2000/svg" xmlns:xlink="http://www.w3.org/1999/xlink" contentStyleType="text/css" height="420px" preserveAspectRatio="none" style="width:503px;height:420px;" version="1.1" viewBox="0 0 503 420" width="503px" zoomAndPan="magnify"><defs/><g><g id="cluster_##2"><rect fill="#EFEFEF" height="407.48" rx="2.5" ry="2.5" style="stroke:#181818;stroke-width:1.0;" width="490" x="7" y="7"/></g><!--cluster control_plane--><g id="cluster_control_plane"><rect fill="#F7EAC9" height="87.3" rx="2.5" ry="2.5" style="stroke:#181818;stroke-width:1.0;" width="312" x="31" y="303.18"/><path d="M147,303.18 L147,312.4769 L137,322.4769 L31,322.4769 " fill="none" style="stroke:#181818;stroke-width:1.0;"/><text fill="#000000" font-family="sans-serif" font-size="14" font-weight="bold" lengthAdjust="spacing" textLength="106" x="34" y="317.1751">Control Plane</text></g><!--cluster worker--><g id="cluster_worker"><rect fill="#F7EAC9" height="87.3" rx="2.5" ry="2.5" style="stroke:#181818;stroke-width:1.0;" width="106" x="367" y="303.18"/><path d="M435,303.18 L435,312.4769 L425,322.4769 L367,322.4769 " fill="none" style="stroke:#181818;stroke-width:1.0;"/><text fill="#000000" font-family="sans-serif" font-size="14" font-weight="bold" lengthAdjust="spacing" textLength="58" x="370" y="317.1751">Worker</text></g><!--entity WAN--><g id="elem_WAN"><path d="M169.3489,31.6932 C172.3449,26.1715 177.9013,25.4896 181.6923,30.7861 C183.9833,26.0201 189.145,24.4235 192.3196,29.8663 C196.2096,24.6183 200.2603,23.7784 204.2897,29.7172 C208.7571,24.437 213.6633,25.0709 216.7235,31.2448 C225.5643,33.7043 226.7695,41.3855 220.426,47.3383 C225.7979,54.4722 224.9659,60.205 215.2584,62.0376 C213.7519,68.821 209.3824,70.613 204.074,65.6608 C202.3888,72.2927 197.7701,74.2789 192.572,69.0745 C188.3958,72.8428 183.8938,72.0818 182.1746,66.3776 C176.3324,69.9179 172.4776,68.1299 170.7538,61.6729 C160.2735,63.2124 157.3243,55.825 160.8064,47.5382 C156.5084,38.2035 158.2142,32.7078 169.3489,31.6932 " fill="#A7E8E0" style="stroke:#181818;stroke-width:0.5;"/><text fill="#000000" font-family="sans-serif" font-size="14" lengthAdjust="spacing" textLength="32" x="176" y="50.9951">WAN</text></g><!--entity LAN--><g id="elem_LAN"><path d="M267.9548,32.8956 C271.6698,21.8448 280.5405,20.7366 287.6547,29.5193 C294.0048,21.6663 303.3081,20.7685 307.4711,31.8128 C317.5517,30.7075 322.4472,37.6502 316.7628,46.511 C321.1202,55.8199 317.5311,60.414 308.026,61.8026 C303.2949,72.938 295.6063,75.5225 286.379,66.6727 C279.9898,75.0047 270.6109,72.6336 267.2221,63.4004 C257.4174,61.5884 254.5172,55.3813 259.4631,46.7114 C255.6584,38.3351 258.5302,33.1406 267.9548,32.8956 " fill="#A7E8E0" style="stroke:#181818;stroke-width:0.5;"/><text fill="#000000" font-family="sans-serif" font-size="14" lengthAdjust="spacing" textLength="26" x="273" y="50.9951">LAN</text></g><!--entity router--><g id="elem_router"><rect fill="#A0C5D3" height="52.5938" rx="2.5" ry="2.5" style="stroke:#181818;stroke-width:0.5;" width="186" x="146" y="129.29"/><text fill="#000000" font-family="sans-serif" font-size="14" font-weight="bold" lengthAdjust="spacing" textLength="53" x="156" y="152.2851">Router</text><text fill="#000000" font-family="sans-serif" font-size="14" lengthAdjust="spacing" textLength="166" x="156" y="168.582">(DHCP, DNS, PXE, TFTP)</text></g><!--entity switch--><g id="elem_switch"><rect fill="#A0C5D3" height="36.2969" rx="2.5" ry="2.5" style="stroke:#181818;stroke-width:0.5;" width="65" x="206.5" y="241.89"/><text fill="#000000" font-family="sans-serif" font-size="14" lengthAdjust="spacing" textLength="45" x="216.5" y="264.8851">Switch</text></g><!--entity node_1--><g id="elem_node_1"><rect fill="#F6CBC0" height="36.2969" rx="2.5" ry="2.5" style="stroke:#181818;stroke-width:0.5;" width="70" x="47" y="338.18"/><text fill="#000000" font-family="sans-serif" font-size="14" lengthAdjust="spacing" textLength="50" x="57" y="361.1751">Node 1</text></g><!--entity node_2--><g id="elem_node_2"><rect fill="#F6CBC0" height="36.2969" rx="2.5" ry="2.5" style="stroke:#181818;stroke-width:0.5;" width="70" x="152" y="338.18"/><text fill="#000000" font-family="sans-serif" font-size="14" lengthAdjust="spacing" textLength="50" x="162" y="361.1751">Node 2</text></g><!--entity node_3--><g id="elem_node_3"><rect fill="#F6CBC0" height="36.2969" rx="2.5" ry="2.5" style="stroke:#181818;stroke-width:0.5;" width="70" x="257" y="338.18"/><text fill="#000000" font-family="sans-serif" font-size="14" lengthAdjust="spacing" textLength="50" x="267" y="361.1751">Node 3</text></g><!--entity nodes--><g id="elem_nodes"><rect fill="#F6CBC0" height="32.2969" rx="2.5" ry="2.5" style="stroke:#181818;stroke-width:0.5;" width="69" x="387.5" y="342.18"/><rect fill="#F6CBC0" height="32.2969" rx="2.5" ry="2.5" style="stroke:#181818;stroke-width:0.5;" width="69" x="383.5" y="338.18"/><text fill="#000000" font-family="sans-serif" font-size="14" lengthAdjust="spacing" textLength="53" x="391.5" y="359.1751">Node ...</text></g><!--link WAN to router--><g id="link_WAN_router"><path d="M201.85,69.67 C209.44,87.02 219.94,111.02 227.84,129.08 " fill="none" id="WAN-router" style="stroke:#181818;stroke-width:1.0;"/></g><!--link LAN to router--><g id="link_LAN_router"><path d="M276.15,69.67 C268.56,87.02 258.06,111.02 250.16,129.08 " fill="none" id="LAN-router" style="stroke:#181818;stroke-width:1.0;"/></g><!--link router to switch--><g id="link_router_switch"><path d="M239,182.18 C239,200.67 239,225.16 239,241.48 " fill="none" id="router-switch" style="stroke:#181818;stroke-width:1.0;"/></g><!--link switch to node_1--><g id="link_switch_node_1"><path d="M206.09,267.13 C184.58,272.21 156.58,280.96 135,295.18 C118.03,306.37 103.18,324.36 93.55,337.75 " fill="none" id="switch-node_1" style="stroke:#181818;stroke-width:1.0;"/></g><!--link switch to node_2--><g id="link_switch_node_2"><path d="M229.46,278.33 C220.14,295.24 206.02,320.85 196.65,337.83 " fill="none" id="switch-node_2" style="stroke:#181818;stroke-width:1.0;"/></g><!--link switch to node_3--><g id="link_switch_node_3"><path d="M248.72,278.33 C258.22,295.24 272.62,320.85 282.16,337.83 " fill="none" id="switch-node_3" style="stroke:#181818;stroke-width:1.0;"/></g><!--link switch to nodes--><g id="link_switch_nodes"><path d="M271.57,268.61 C292.68,274.27 320.37,283.1 343,295.18 C364.7,306.76 386.52,324.52 401.36,337.74 " fill="none" id="switch-nodes" style="stroke:#181818;stroke-width:1.0;"/></g><!--SRC=[TP5VQy8m5CNV-oakzMM3sjMMpGr4g6dT7gGK5HoC8R6DhZHB9AduCFpkk_rZdPPHA3U_UtAuzqJdcTXJHRzXGfFyLSc3I8daKa6XgD3OOg8m3CMIWeeTPz1Zs_A37mCWuVAGmigFeESFm-VGQTdiYj4TcW1w5qmXTiXZuC47DW16c_6yugE7pRWYTy4RYIq8eeK5yNjemNAwZE-nzTawwMDM95z0DPYBgZJFhYZPuZ8C4YaA9VbwpwbWbPBK1EAIu8NfCFJ9IxN7sTUCPCfWO9PwWULwWB8dCY5EH-HUHEw_8kyYylw8JksKHwboZAGSRrMLjtCbadECFfD2DvwsRRUk-ieKV-LJzFjDqdYUtPoR9q1KHuYeoH9HlN4NkLtaTP0sJhy0]--></g></svg>