<?xml version="1.0" encoding="us-ascii" standalone="no"?><svg xmlns="http://www.w3.org/2000/svg" xmlns:xlink="http://www.w3.org/1999/xlink" contentStyleType="text/css" height="420px" preserveAspectRatio="none" style="width:503px;height:420px;" version="1.1" viewBox="0 0 503 420" width="503px" zoomAndPan="magnify"><defs/><g><g id="cluster_##2"><rect fill="#EFEFEF" height="407.48" rx="2.5" ry="2.5" style="stroke:#181818;stroke-width:1.0;" width="490" x="7" y="7"/></g><!--cluster control_plane--><g id="cluster_control_plane"><rect fill="#F7EAC9" height="87.3" rx="2.5" ry="2.5" style="stroke:#181818;stroke-width:1.0;" width="312" x="31" y="303.18"/><path d="M147,303.18 L147,312.4769 L137,322.4769 L31,322.4769 " fill="none" style="stroke:#181818;stroke-width:1.0;"/><text fill="#000000" font-family="sans-serif" font-size="14" font-weight="bold" lengthAdjust="spacing" textLength="106" x="34" y="317.1751">Control Plane</text></g><!--cluster worker--><g id="cluster_worker"><rect fill="#F7EAC9" height="87.3" rx="2.5" ry="2.5" style="stroke:#181818;stroke-width:1.0;" width="106" x="367" y="303.18"/><path d="M435,303.18 L435,312.4769 L425,322.4769 L367,322.4769 " fill="none" style="stroke:#181818;stroke-width:1.0;"/><text fill="#000000" font-family="sans-serif" font-size="14" font-weight="bold" lengthAdjust="spacing" textLength="58" x="370" y="317.1751">Worker</text></g><!--entity WAN--><g id="elem_WAN"><path d="M116.3489,31.6932 C119.3449,26.1715 124.9013,25.4896 128.6923,30.7861 C130.9833,26.0201 136.145,24.4235 139.3196,29.8663 C143.2096,24.6183 147.2603,23.7784 151.2897,29.7172 C155.7571,24.437 160.6633,25.0709 163.7235,31.2448 C172.5643,33.7043 173.7695,41.3855 167.426,47.3383 C172.7979,54.4722 171.9659,60.205 162.2584,62.0376 C160.7519,68.821 156.3824,70.613 151.074,65.6608 C149.3888,72.2927 144.7701,74.2789 139.572,69.0745 C135.3958,72.8428 130.8938,72.0818 129.1746,66.3776 C123.3324,69.9179 119.4776,68.1299 117.7538,61.6729 C107.2735,63.2124 104.3243,55.825 107.8064,47.5382 C103.5084,38.2035 105.2142,32.7078 116.3489,31.6932 " fill="#A7E8E0" style="stroke:#181818;stroke-width:0.5;"/><text fill="#000000" font-family="sans-serif" font-size="14" lengthAdjust="spacing" textLength="32" x="123" y="50.9951">WAN</text></g><!--entity lan_1--><g id="elem_lan_1"><path d="M213.9679,31.0572 C218.1734,24.4272 223.4754,25.0027 227.7054,31.0306 C230.3851,25.7481 235.0214,23.4771 239.3607,29.2868 C244.439,22.5587 248.5288,23.7573 252.7428,30.1672 C257.5254,24.4795 263.461,25.8444 265.8302,32.6877 C274.8477,35.5382 275.1737,41.9677 269.5892,48.3278 C275.2204,53.3442 273.4366,59.0661 266.6784,61.3032 C263.9073,68.4199 259.6949,69.3028 254.1326,64.1595 C250.3186,70.9789 246.0682,73.6994 239.7707,66.7499 C234.9447,72.0723 229.9911,71.7687 227.3233,64.5994 C221.9993,70.8674 215.757,69.6748 213.77,61.4736 C205.614,58.8562 205.2368,52.1154 211.7541,47.3967 C204.7098,41.1461 206.0929,35.2864 213.9679,31.0572 " fill="#A7E8E0" style="stroke:#181818;stroke-width:0.5;"/><text fill="#000000" font-family="sans-serif" font-size="14" lengthAdjust="spacing" textLength="39" x="219.5" y="50.9951">LAN 1</text></g><!--entity lan_2--><g id="elem_lan_2"><path d="M317.9679,31.0572 C322.1734,24.4272 327.4754,25.0027 331.7054,31.0306 C334.3851,25.7481 339.0214,23.4771 343.3607,29.2868 C348.439,22.5587 352.5288,23.7573 356.7428,30.1672 C361.5254,24.4795 367.461,25.8444 369.8302,32.6877 C378.8477,35.5382 379.1737,41.9677 373.5892,48.3278 C379.2204,53.3442 377.4366,59.0661 370.6784,61.3032 C367.9073,68.4199 363.6949,69.3028 358.1326,64.1595 C354.3186,70.9789 350.0682,73.6994 343.7707,66.7499 C338.9447,72.0723 333.9911,71.7687 331.3233,64.5994 C325.9993,70.8674 319.757,69.6748 317.77,61.4736 C309.614,58.8562 309.2368,52.1154 315.7541,47.3967 C308.7098,41.1461 310.0929,35.2864 317.9679,31.0572 " fill="#A7E8E0" style="stroke:#181818;stroke-width:0.5;"/><text fill="#000000" font-family="sans-serif" font-size="14" lengthAdjust="spacing" textLength="39" x="323.5" y="50.9951">LAN 2</text></g><!--entity router--><g id="elem_router"><rect fill="#A0C5D3" height="52.5938" rx="2.5" ry="2.5" style="stroke:#181818;stroke-width:0.5;" width="219" x="129.5" y="129.29"/><text fill="#000000" font-family="sans-serif" font-size="14" font-weight="bold" lengthAdjust="spacing" textLength="53" x="139.5" y="152.2851">Router</text><text fill="#000000" font-family="sans-serif" font-size="14" lengthAdjust="spacing" textLength="199" x="139.5" y="168.582">(DHCP, DNS, PXE/TFTP, NTP)</text></g><!--entity switch--><g id="elem_switch"><rect fill="#A0C5D3" height="36.2969" rx="2.5" ry="2.5" style="stroke:#181818;stroke-width:0.5;" width="65" x="206.5" y="241.89"/><text fill="#000000" font-family="sans-serif" font-size="14" lengthAdjust="spacing" textLength="45" x="216.5" y="264.8851">Switch</text></g><!--entity node_1--><g id="elem_node_1"><rect fill="#F6CBC0" height="36.2969" rx="2.5" ry="2.5" style="stroke:#181818;stroke-width:0.5;" width="70" x="47" y="338.18"/><text fill="#000000" font-family="sans-serif" font-size="14" lengthAdjust="spacing" textLength="50" x="57" y="361.1751">Node 1</text></g><!--entity node_2--><g id="elem_node_2"><rect fill="#F6CBC0" height="36.2969" rx="2.5" ry="2.5" style="stroke:#181818;stroke-width:0.5;" width="70" x="152" y="338.18"/><text fill="#000000" font-family="sans-serif" font-size="14" lengthAdjust="spacing" textLength="50" x="162" y="361.1751">Node 2</text></g><!--entity node_3--><g id="elem_node_3"><rect fill="#F6CBC0" height="36.2969" rx="2.5" ry="2.5" style="stroke:#181818;stroke-width:0.5;" width="70" x="257" y="338.18"/><text fill="#000000" font-family="sans-serif" font-size="14" lengthAdjust="spacing" textLength="50" x="267" y="361.1751">Node 3</text></g><!--entity nodes--><g id="elem_nodes"><rect fill="#F6CBC0" height="32.2969" rx="2.5" ry="2.5" style="stroke:#181818;stroke-width:0.5;" width="69" x="387.5" y="342.18"/><rect fill="#F6CBC0" height="32.2969" rx="2.5" ry="2.5" style="stroke:#181818;stroke-width:0.5;" width="69" x="383.5" y="338.18"/><text fill="#000000" font-family="sans-serif" font-size="14" lengthAdjust="spacing" textLength="53" x="391.5" y="359.1751">Node ...</text></g><!--link WAN to router--><g id="link_WAN_router"><path d="M159.96,69.67 C176.11,87.02 198.45,111.02 215.26,129.08 " fill="none" id="WAN-router" style="stroke:#181818;stroke-width:1.0;"/></g><!--link lan_1 to router--><g id="link_lan_1_router"><path d="M239,69.67 C239,87.02 239,111.02 239,129.08 " fill="none" id="lan_1-router" style="stroke:#181818;stroke-width:1.0;"/></g><!--link lan_2 to router--><g id="link_lan_2_router"><path d="M321.2,69.67 C304.4,87.02 281.17,111.02 263.69,129.08 " fill="none" id="lan_2-router" style="stroke:#181818;stroke-width:1.0;"/></g><!--link router to switch--><g id="link_router_switch"><path d="M239,182.18 C239,200.67 239,225.16 239,241.48 " fill="none" id="router-switch" style="stroke:#181818;stroke-width:1.0;"/></g><!--link switch to node_1--><g id="link_switch_node_1"><path d="M206.09,267.13 C184.58,272.21 156.58,280.96 135,295.18 C118.03,306.37 103.18,324.36 93.55,337.75 " fill="none" id="switch-node_1" style="stroke:#181818;stroke-width:1.0;"/></g><!--link switch to node_2--><g id="link_switch_node_2"><path d="M229.46,278.33 C220.14,295.24 206.02,320.85 196.65,337.83 " fill="none" id="switch-node_2" style="stroke:#181818;stroke-width:1.0;"/></g><!--link switch to node_3--><g id="link_switch_node_3"><path d="M248.72,278.33 C258.22,295.24 272.62,320.85 282.16,337.83 " fill="none" id="switch-node_3" style="stroke:#181818;stroke-width:1.0;"/></g><!--link switch to nodes--><g id="link_switch_nodes"><path d="M271.57,268.61 C292.68,274.27 320.37,283.1 343,295.18 C364.7,306.76 386.52,324.52 401.36,337.74 " fill="none" id="switch-nodes" style="stroke:#181818;stroke-width:1.0;"/></g><!--SRC=[TP5TQy8m58Rl-oiEzMO3FrisDn11qtQx6ALemS4O4cjqfLaYISMBuN_VQLhhHpSAvUGvRzwS3vsbOaSL_OOfJR8N9VTYJIIN2d95XSOK4xbbAPRaL6mvWnRR51_yM009b_irB2OXj2P3_ydlrunJiHm0rM2_ONPW_obmQe5pAQ1RV1Amafmfn7touBdmWGc0qMeyCtpKMuqDkVDUITG6Bvot8NhtUt4Gup6CetjCVzPk-f3coPTvRsv2- -ICaWsspo2H8bUIBtTO6ZDAKXA82e8NWg4_8S-cyvEl7SerA_f3lS0Gcsu5ZsHA-WsHSnOv_uhSiyYz41thAWzIPJYMeho52M_hIYJdkAnK2brvThlTsbLVcUAlM5wdKqqRp-NYRebpHQhL82h7YgYQBw9o2ataD97RGDew_W80]--></g></svg>