<svg xmlns="http://www.w3.org/2000/svg" xmlns:xlink="http://www.w3.org/1999/xlink" contentStyleType="text/css" height="53px" preserveAspectRatio="none" style="width:431px;height:53px;background:#FFFFFF;" version="1.1" viewBox="0 0 431 53" width="431px" zoomAndPan="magnify"><defs/><g><rect fill="#F1F1F1" height="40" rx="12.5" ry="12.5" style="stroke:#181818;stroke-width:0.5;" width="50" x="61" y="7"/><text fill="#000000" font-family="sans-serif" font-size="14" lengthAdjust="spacing" textLength="30" x="71" y="31.8467">UEFI</text><rect fill="#F1F1F1" height="40" rx="12.5" ry="12.5" style="stroke:#181818;stroke-width:0.5;" width="50" x="146" y="7"/><text fill="#000000" font-family="sans-serif" font-size="14" lengthAdjust="spacing" textLength="27" x="157.5" y="31.8467">PXE</text><rect fill="#F1F1F1" height="40" rx="12.5" ry="12.5" style="stroke:#181818;stroke-width:0.5;" width="50" x="231" y="7"/><text fill="#000000" font-family="sans-serif" font-size="14" lengthAdjust="spacing" textLength="30" x="241" y="31.8467">iPXE</text><rect fill="#F1F1F1" height="40" rx="12.5" ry="12.5" style="stroke:#181818;stroke-width:0.5;" width="52" x="316" y="7"/><text fill="#000000" font-family="sans-serif" font-size="14" lengthAdjust="spacing" textLength="42" x="321" y="31.8467">Image</text><ellipse cx="16" cy="27" fill="#222222" rx="10" ry="10" style="stroke:#222222;stroke-width:1.0;"/><ellipse cx="414" cy="27" fill="none" rx="11" ry="11" style="stroke:#222222;stroke-width:1.0;"/><ellipse cx="414" cy="27" fill="#222222" rx="6" ry="6" style="stroke:#222222;stroke-width:1.0;"/><!--link *start* to uefi--><g id="link_*start*_uefi"><path d="M26.39,27 C37.88,27 43.37,27 54.85,27 " fill="none" id="*start*-to-uefi" style="stroke:#181818;stroke-width:1.0;"/><polygon fill="#181818" points="60.85,27,51.85,23,55.85,27,51.85,31,60.85,27" style="stroke:#181818;stroke-width:1.0;"/></g><!--link uefi to pxe--><g id="link_uefi_pxe"><path d="M111.23,27 C122.75,27 128.27,27 139.79,27 " fill="none" id="uefi-to-pxe" style="stroke:#181818;stroke-width:1.0;"/><polygon fill="#181818" points="145.79,27,136.79,23,140.79,27,136.79,31,145.79,27" style="stroke:#181818;stroke-width:1.0;"/></g><!--link pxe to ipxe--><g id="link_pxe_ipxe"><path d="M196.23,27 C207.75,27 213.27,27 224.79,27 " fill="none" id="pxe-to-ipxe" style="stroke:#181818;stroke-width:1.0;"/><polygon fill="#181818" points="230.79,27,221.79,23,225.79,27,221.79,31,230.79,27" style="stroke:#181818;stroke-width:1.0;"/></g><!--link ipxe to image--><g id="link_ipxe_image"><path d="M281.2,27 C292.75,27 298.31,27 309.87,27 " fill="none" id="ipxe-to-image" style="stroke:#181818;stroke-width:1.0;"/><polygon fill="#181818" points="315.87,27,306.87,23,310.87,27,306.87,31,315.87,27" style="stroke:#181818;stroke-width:1.0;"/></g><!--link image to *end*--><g id="link_image_*end*"><path d="M368.44,27 C379.83,27 385.22,27 396.61,27 " fill="none" id="image-to-*end*" style="stroke:#181818;stroke-width:1.0;"/><polygon fill="#181818" points="402.61,27,393.61,23,397.61,27,393.61,31,402.61,27" style="stroke:#181818;stroke-width:1.0;"/></g><!--SRC=[oyXCILL8pIqegLH8IIrEBieiACdCp-FYAYv9B4bLK0frTVDKKaWiLYXDJSk42GP4k8B52YfIOKAPCB5C947FtCJqL8WeYCN55QqLgw1h1p4BH80u8FL036A2zMR2E60jO1B41Me50000]--></g></svg>