<svg xmlns="http://www.w3.org/2000/svg" xmlns:xlink="http://www.w3.org/1999/xlink" contentStyleType="text/css" height="814px" preserveAspectRatio="none" style="width:699px;height:814px;background:#FFFFFF;" version="1.1" viewBox="0 0 699 814" width="699px" zoomAndPan="magnify"><defs><filter height="1" id="b16neu6j6d1vr30" width="1" x="0" y="0"><feFlood flood-color="#2A9D8F" result="flood"/><feComposite in="SourceGraphic" in2="flood" operator="over"/></filter></defs><g><rect fill="#F6CBC0" height="802.7109" style="stroke:#181818;stroke-width:0.5;" width="335" x="1" y="6"/><text fill="#000000" font-family="sans-serif" font-size="13" font-weight="bold" lengthAdjust="spacing" textLength="39" x="149" y="18.0669">Node</text><rect fill="#A0C5D3" height="802.7109" style="stroke:#181818;stroke-width:0.5;" width="121" x="395" y="6"/><text fill="#000000" font-family="sans-serif" font-size="13" font-weight="bold" lengthAdjust="spacing" textLength="49" x="431" y="18.0669">Router</text><rect fill="#E76F51" height="237.3281" style="stroke:#181818;stroke-width:1.0;" width="10" x="105" y="87.5625"/><rect fill="#E76F51" height="431.5234" style="stroke:#181818;stroke-width:1.0;" width="10" x="196" y="324.8906"/><rect fill="#FFFFFF" height="9" style="stroke:#181818;stroke-width:1.0;" width="10" x="299" y="756.4141"/><rect fill="#264653" height="59.3984" style="stroke:#181818;stroke-width:1.0;" width="10" x="421" y="140.8281"/><rect fill="#264653" height="59.3984" style="stroke:#181818;stroke-width:1.0;" width="10" x="421" y="378.1563"/><rect fill="#264653" height="44.2656" style="stroke:#181818;stroke-width:1.0;" width="10" x="482.5" y="244.4922"/><rect fill="#264653" height="66.3984" style="stroke:#181818;stroke-width:1.0;" width="10" x="482.5" y="481.8203"/><rect fill="#264653" height="59.3984" style="stroke:#181818;stroke-width:1.0;" width="10" x="482.5" y="660.8828"/><rect fill="none" height="194.1953" style="stroke:#000000;stroke-width:1.5;" width="442.5" x="79.5" y="102.5625"/><rect fill="none" height="238.4609" style="stroke:#000000;stroke-width:1.5;" width="524.5" x="169" y="339.8906"/><rect fill="none" height="135.9297" style="stroke:#000000;stroke-width:1.5;" width="353" x="169" y="592.3516"/><line style="stroke:#181818;stroke-width:0.5;stroke-dasharray:5.0,5.0;" x1="27" x2="27" y1="56.4297" y2="774.4141"/><line style="stroke:#181818;stroke-width:0.5;stroke-dasharray:5.0,5.0;" x1="109.5" x2="109.5" y1="56.4297" y2="774.4141"/><line style="stroke:#181818;stroke-width:0.5;stroke-dasharray:5.0,5.0;" x1="201" x2="201" y1="56.4297" y2="774.4141"/><line style="stroke:#181818;stroke-width:0.5;stroke-dasharray:5.0,5.0;" x1="304" x2="304" y1="56.4297" y2="774.4141"/><line style="stroke:#181818;stroke-width:0.5;stroke-dasharray:5.0,5.0;" x1="426" x2="426" y1="56.4297" y2="774.4141"/><line style="stroke:#181818;stroke-width:0.5;stroke-dasharray:5.0,5.0;" x1="487" x2="487" y1="56.4297" y2="774.4141"/><rect fill="#FFFFFF" height="30.2969" rx="2.5" ry="2.5" style="stroke:#181818;stroke-width:0.5;" width="44" x="5" y="25.1328"/><text fill="#000000" font-family="sans-serif" font-size="14" lengthAdjust="spacing" textLength="30" x="12" y="45.1279">UEFI</text><rect fill="#FFFFFF" height="30.2969" rx="2.5" ry="2.5" style="stroke:#181818;stroke-width:0.5;" width="44" x="5" y="773.4141"/><text fill="#000000" font-family="sans-serif" font-size="14" lengthAdjust="spacing" textLength="30" x="12" y="793.4092">UEFI</text><rect fill="#FFFFFF" height="30.2969" rx="2.5" ry="2.5" style="stroke:#181818;stroke-width:0.5;" width="41" x="89.5" y="25.1328"/><text fill="#000000" font-family="sans-serif" font-size="14" lengthAdjust="spacing" textLength="27" x="96.5" y="45.1279">PXE</text><rect fill="#FFFFFF" height="30.2969" rx="2.5" ry="2.5" style="stroke:#181818;stroke-width:0.5;" width="41" x="89.5" y="773.4141"/><text fill="#000000" font-family="sans-serif" font-size="14" lengthAdjust="spacing" textLength="27" x="96.5" y="793.4092">PXE</text><rect fill="#FFFFFF" height="30.2969" rx="2.5" ry="2.5" style="stroke:#181818;stroke-width:0.5;" width="44" x="179" y="25.1328"/><text fill="#000000" font-family="sans-serif" font-size="14" lengthAdjust="spacing" textLength="30" x="186" y="45.1279">iPXE</text><rect fill="#FFFFFF" height="30.2969" rx="2.5" ry="2.5" style="stroke:#181818;stroke-width:0.5;" width="44" x="179" y="773.4141"/><text fill="#000000" font-family="sans-serif" font-size="14" lengthAdjust="spacing" textLength="30" x="186" y="793.4092">iPXE</text><rect fill="#FFFFFF" height="30.2969" rx="2.5" ry="2.5" style="stroke:#181818;stroke-width:0.5;" width="56" x="276" y="25.1328"/><text fill="#000000" font-family="sans-serif" font-size="14" lengthAdjust="spacing" textLength="42" x="283" y="45.1279">Image</text><rect fill="#FFFFFF" height="30.2969" rx="2.5" ry="2.5" style="stroke:#181818;stroke-width:0.5;" width="56" x="276" y="773.4141"/><text fill="#000000" font-family="sans-serif" font-size="14" lengthAdjust="spacing" textLength="42" x="283" y="793.4092">Image</text><rect fill="#FFFFFF" height="30.2969" rx="2.5" ry="2.5" style="stroke:#181818;stroke-width:0.5;" width="54" x="399" y="25.1328"/><text fill="#000000" font-family="sans-serif" font-size="14" lengthAdjust="spacing" textLength="40" x="406" y="45.1279">DHCP</text><rect fill="#FFFFFF" height="30.2969" rx="2.5" ry="2.5" style="stroke:#181818;stroke-width:0.5;" width="54" x="399" y="773.4141"/><text fill="#000000" font-family="sans-serif" font-size="14" lengthAdjust="spacing" textLength="40" x="406" y="793.4092">DHCP</text><rect fill="#FFFFFF" height="30.2969" rx="2.5" ry="2.5" style="stroke:#181818;stroke-width:0.5;" width="49" x="463" y="25.1328"/><text fill="#000000" font-family="sans-serif" font-size="14" lengthAdjust="spacing" textLength="35" x="470" y="45.1279">TFTP</text><rect fill="#FFFFFF" height="30.2969" rx="2.5" ry="2.5" style="stroke:#181818;stroke-width:0.5;" width="49" x="463" y="773.4141"/><text fill="#000000" font-family="sans-serif" font-size="14" lengthAdjust="spacing" textLength="35" x="470" y="793.4092">TFTP</text><rect fill="#E76F51" height="237.3281" style="stroke:#181818;stroke-width:1.0;" width="10" x="105" y="87.5625"/><rect fill="#E76F51" height="431.5234" style="stroke:#181818;stroke-width:1.0;" width="10" x="196" y="324.8906"/><rect fill="#FFFFFF" height="9" style="stroke:#181818;stroke-width:1.0;" width="10" x="299" y="756.4141"/><rect fill="#264653" height="59.3984" style="stroke:#181818;stroke-width:1.0;" width="10" x="421" y="140.8281"/><rect fill="#264653" height="59.3984" style="stroke:#181818;stroke-width:1.0;" width="10" x="421" y="378.1563"/><rect fill="#264653" height="44.2656" style="stroke:#181818;stroke-width:1.0;" width="10" x="482.5" y="244.4922"/><rect fill="#264653" height="66.3984" style="stroke:#181818;stroke-width:1.0;" width="10" x="482.5" y="481.8203"/><rect fill="#264653" height="59.3984" style="stroke:#181818;stroke-width:1.0;" width="10" x="482.5" y="660.8828"/><polygon fill="#181818" points="93,83.5625,103,87.5625,93,91.5625,97,87.5625" style="stroke:#181818;stroke-width:1.0;"/><line style="stroke:#181818;stroke-width:1.0;" x1="27" x2="99" y1="87.5625" y2="87.5625"/><text fill="#000000" font-family="sans-serif" font-size="13" lengthAdjust="spacing" textLength="59" x="34" y="82.4966">Load PXE</text><path d="M79.5,102.5625 L297.5,102.5625 L297.5,109.6953 L287.5,119.6953 L79.5,119.6953 L79.5,102.5625 " fill="#EEEEEE" style="stroke:#000000;stroke-width:1.5;"/><rect fill="none" height="194.1953" style="stroke:#000000;stroke-width:1.5;" width="442.5" x="79.5" y="102.5625"/><text fill="#000000" font-family="sans-serif" font-size="13" font-weight="bold" lengthAdjust="spacing" textLength="173" x="94.5" y="115.6294">Request iPXE Firmware</text><polygon fill="#181818" points="409,136.8281,419,140.8281,409,144.8281,413,140.8281" style="stroke:#181818;stroke-width:1.0;"/><line style="stroke:#181818;stroke-width:1.0;" x1="115" x2="415" y1="140.8281" y2="140.8281"/><text fill="#000000" font-family="sans-serif" font-size="13" lengthAdjust="spacing" textLength="93" x="122" y="135.7622">DHCP Request</text><polygon fill="#181818" points="126,196.2266,116,200.2266,126,204.2266,122,200.2266" style="stroke:#181818;stroke-width:1.0;"/><line style="stroke:#181818;stroke-width:1.0;" x1="120" x2="425" y1="200.2266" y2="200.2266"/><text fill="#000000" font-family="sans-serif" font-size="13" lengthAdjust="spacing" textLength="75" x="132" y="164.895">DHCP Reply</text><ellipse cx="137.5" cy="175.5938" fill="#000000" rx="2.5" ry="2.5" style="stroke:#000000;stroke-width:0.0;"/><text fill="#000000" font-family="sans-serif" font-size="13" lengthAdjust="spacing" textLength="98" x="144" y="180.0278">Bootfile Server:</text><text fill="#000000" font-family="monospace" font-size="13" lengthAdjust="spacing" textLength="48" x="246" y="180.0278">router</text><ellipse cx="137.5" cy="190.7266" fill="#000000" rx="2.5" ry="2.5" style="stroke:#000000;stroke-width:0.0;"/><text fill="#000000" font-family="sans-serif" font-size="13" lengthAdjust="spacing" textLength="95" x="144" y="195.1606">Bootfile Name:</text><text fill="#000000" filter="url(#b16neu6j6d1vr30)" font-family="sans-serif" font-size="13" lengthAdjust="spacing" textLength="4" x="243" y="195.1606">&#160;</text><text fill="#000000" filter="url(#b16neu6j6d1vr30)" font-family="monospace" font-size="13" lengthAdjust="spacing" textLength="64" x="247" y="195.1606">ipxe.efi</text><text fill="#000000" filter="url(#b16neu6j6d1vr30)" font-family="sans-serif" font-size="13" lengthAdjust="spacing" textLength="4" x="311" y="195.1606">&#160;</text><polygon fill="#181818" points="470.5,240.4922,480.5,244.4922,470.5,248.4922,474.5,244.4922" style="stroke:#181818;stroke-width:1.0;"/><line style="stroke:#181818;stroke-width:1.0;" x1="115" x2="476.5" y1="244.4922" y2="244.4922"/><text fill="#000000" font-family="sans-serif" font-size="13" lengthAdjust="spacing" textLength="56" x="122" y="224.2935">TFTP Get</text><ellipse cx="127.5" cy="234.9922" fill="#000000" rx="2.5" ry="2.5" style="stroke:#000000;stroke-width:0.0;"/><text fill="#000000" font-family="monospace" font-size="13" lengthAdjust="spacing" textLength="64" x="134" y="239.4263">ipxe.efi</text><polygon fill="#181818" points="126,284.7578,116,288.7578,126,292.7578,122,288.7578" style="stroke:#181818;stroke-width:1.0;"/><line style="stroke:#181818;stroke-width:1.0;" x1="120" x2="486.5" y1="288.7578" y2="288.7578"/><text fill="#000000" font-family="sans-serif" font-size="13" lengthAdjust="spacing" textLength="67" x="132" y="268.5591">TFTP Reply</text><ellipse cx="137.5" cy="279.2578" fill="#000000" rx="2.5" ry="2.5" style="stroke:#000000;stroke-width:0.0;"/><text fill="#000000" font-family="monospace" font-size="13" lengthAdjust="spacing" textLength="64" x="144" y="283.6919">ipxe.efi</text><polygon fill="#181818" points="184,320.8906,194,324.8906,184,328.8906,188,324.8906" style="stroke:#181818;stroke-width:1.0;"/><line style="stroke:#181818;stroke-width:1.0;" x1="110" x2="190" y1="324.8906" y2="324.8906"/><text fill="#000000" font-family="sans-serif" font-size="13" lengthAdjust="spacing" textLength="62" x="117" y="319.8247">Load iPXE</text><path d="M169,339.8906 L400,339.8906 L400,347.0234 L390,357.0234 L169,357.0234 L169,339.8906 " fill="#EEEEEE" style="stroke:#000000;stroke-width:1.5;"/><rect fill="none" height="238.4609" style="stroke:#000000;stroke-width:1.5;" width="524.5" x="169" y="339.8906"/><text fill="#000000" font-family="sans-serif" font-size="13" font-weight="bold" lengthAdjust="spacing" textLength="186" x="184" y="352.9575">Request iPXE Boot Script</text><polygon fill="#181818" points="409,374.1563,419,378.1563,409,382.1563,413,378.1563" style="stroke:#181818;stroke-width:1.0;"/><line style="stroke:#181818;stroke-width:1.0;" x1="206" x2="415" y1="378.1563" y2="378.1563"/><text fill="#000000" font-family="sans-serif" font-size="13" lengthAdjust="spacing" textLength="93" x="213" y="373.0903">DHCP Request</text><polygon fill="#181818" points="217,433.5547,207,437.5547,217,441.5547,213,437.5547" style="stroke:#181818;stroke-width:1.0;"/><line style="stroke:#181818;stroke-width:1.0;" x1="211" x2="425" y1="437.5547" y2="437.5547"/><text fill="#000000" font-family="sans-serif" font-size="13" lengthAdjust="spacing" textLength="75" x="223" y="402.2231">DHCP Reply</text><ellipse cx="228.5" cy="412.9219" fill="#000000" rx="2.5" ry="2.5" style="stroke:#000000;stroke-width:0.0;"/><text fill="#000000" font-family="sans-serif" font-size="13" lengthAdjust="spacing" textLength="98" x="235" y="417.356">Bootfile Server:</text><text fill="#000000" font-family="monospace" font-size="13" lengthAdjust="spacing" textLength="48" x="337" y="417.356">router</text><ellipse cx="228.5" cy="428.0547" fill="#000000" rx="2.5" ry="2.5" style="stroke:#000000;stroke-width:0.0;"/><text fill="#000000" font-family="sans-serif" font-size="13" lengthAdjust="spacing" textLength="95" x="235" y="432.4888">Bootfile Name:</text><text fill="#000000" filter="url(#b16neu6j6d1vr30)" font-family="sans-serif" font-size="13" lengthAdjust="spacing" textLength="4" x="334" y="432.4888">&#160;</text><text fill="#000000" filter="url(#b16neu6j6d1vr30)" font-family="monospace" font-size="13" lengthAdjust="spacing" textLength="72" x="338" y="432.4888">boot.ipxe</text><text fill="#000000" filter="url(#b16neu6j6d1vr30)" font-family="sans-serif" font-size="13" lengthAdjust="spacing" textLength="4" x="410" y="432.4888">&#160;</text><polygon fill="#181818" points="470.5,477.8203,480.5,481.8203,470.5,485.8203,474.5,481.8203" style="stroke:#181818;stroke-width:1.0;"/><line style="stroke:#181818;stroke-width:1.0;" x1="206" x2="476.5" y1="481.8203" y2="481.8203"/><text fill="#000000" font-family="sans-serif" font-size="13" lengthAdjust="spacing" textLength="56" x="213" y="461.6216">TFTP Get</text><ellipse cx="218.5" cy="472.3203" fill="#000000" rx="2.5" ry="2.5" style="stroke:#000000;stroke-width:0.0;"/><text fill="#000000" font-family="monospace" font-size="13" lengthAdjust="spacing" textLength="72" x="225" y="476.7544">boot.ipxe</text><polygon fill="#181818" points="217,544.2188,207,548.2188,217,552.2188,213,548.2188" style="stroke:#181818;stroke-width:1.0;"/><line style="stroke:#181818;stroke-width:1.0;" x1="211" x2="486.5" y1="548.2188" y2="548.2188"/><text fill="#000000" font-family="sans-serif" font-size="13" lengthAdjust="spacing" textLength="67" x="223" y="528.02">TFTP Reply</text><ellipse cx="228.5" cy="538.7188" fill="#000000" rx="2.5" ry="2.5" style="stroke:#000000;stroke-width:0.0;"/><text fill="#000000" font-family="monospace" font-size="13" lengthAdjust="spacing" textLength="72" x="235" y="543.1528">boot.ipxe</text><path d="M497,494.8203 L497,572.8203 L678,572.8203 L678,504.8203 L668,494.8203 L497,494.8203 " fill="#FEFFDD" style="stroke:#181818;stroke-width:0.5;"/><path d="M668,494.8203 L668,504.8203 L678,504.8203 L668,494.8203 " fill="#FEFFDD" style="stroke:#181818;stroke-width:0.5;"/><text fill="#000000" font-family="sans-serif" font-size="13" lengthAdjust="spacing" textLength="59" x="503" y="511.8872">boot.ipxe</text><line style="stroke:#181818;stroke-width:1.0;" x1="498" x2="677" y1="514.9531" y2="514.9531"/><text fill="#000000" font-family="monospace" font-size="13" lengthAdjust="spacing" textLength="48" x="503" y="531.02">#!ipxe</text><text fill="#000000" font-family="monospace" font-size="13" lengthAdjust="spacing" textLength="160" x="503" y="546.1528">initrd&#160;/initramfs.xz</text><text fill="#000000" font-family="monospace" font-size="13" lengthAdjust="spacing" textLength="152" x="503" y="561.2856">kernel&#160;/vmlinuz&#160;...</text><path d="M169,592.3516 L326,592.3516 L326,599.4844 L316,609.4844 L169,609.4844 L169,592.3516 " fill="#EEEEEE" style="stroke:#000000;stroke-width:1.5;"/><rect fill="none" height="135.9297" style="stroke:#000000;stroke-width:1.5;" width="353" x="169" y="592.3516"/><text fill="#000000" font-family="sans-serif" font-size="13" font-weight="bold" lengthAdjust="spacing" textLength="112" x="184" y="605.4185">Request Image</text><polygon fill="#181818" points="470.5,656.8828,480.5,660.8828,470.5,664.8828,474.5,660.8828" style="stroke:#181818;stroke-width:1.0;"/><line style="stroke:#181818;stroke-width:1.0;" x1="206" x2="476.5" y1="660.8828" y2="660.8828"/><text fill="#000000" font-family="sans-serif" font-size="13" lengthAdjust="spacing" textLength="56" x="213" y="625.5513">TFTP Get</text><ellipse cx="218.5" cy="636.25" fill="#000000" rx="2.5" ry="2.5" style="stroke:#000000;stroke-width:0.0;"/><text fill="#000000" font-family="monospace" font-size="13" lengthAdjust="spacing" textLength="104" x="225" y="640.6841">initramfs4.xz</text><ellipse cx="218.5" cy="651.3828" fill="#000000" rx="2.5" ry="2.5" style="stroke:#000000;stroke-width:0.0;"/><text fill="#000000" font-family="monospace" font-size="13" lengthAdjust="spacing" textLength="56" x="225" y="655.8169">vmlinuz</text><polygon fill="#181818" points="217,716.2813,207,720.2813,217,724.2813,213,720.2813" style="stroke:#181818;stroke-width:1.0;"/><line style="stroke:#181818;stroke-width:1.0;" x1="211" x2="486.5" y1="720.2813" y2="720.2813"/><text fill="#000000" font-family="sans-serif" font-size="13" lengthAdjust="spacing" textLength="67" x="223" y="684.9497">TFTP Reply</text><ellipse cx="228.5" cy="695.6484" fill="#000000" rx="2.5" ry="2.5" style="stroke:#000000;stroke-width:0.0;"/><text fill="#000000" font-family="monospace" font-size="13" lengthAdjust="spacing" textLength="96" x="235" y="700.0825">initramfs.xz</text><ellipse cx="228.5" cy="710.7813" fill="#000000" rx="2.5" ry="2.5" style="stroke:#000000;stroke-width:0.0;"/><text fill="#000000" font-family="monospace" font-size="13" lengthAdjust="spacing" textLength="56" x="235" y="715.2153">vmlinuz</text><polygon fill="#181818" points="287,752.4141,297,756.4141,287,760.4141,291,756.4141" style="stroke:#181818;stroke-width:1.0;"/><line style="stroke:#181818;stroke-width:1.0;" x1="201" x2="293" y1="756.4141" y2="756.4141"/><text fill="#000000" font-family="sans-serif" font-size="13" lengthAdjust="spacing" textLength="74" x="208" y="751.3481">Boot Image</text><!--SRC=[jLJBJkD04BpFLpIJsqfnM221jL0aI690MY74G-Ambx7T2IrYZtSo3e6lttd4Zesi827joVPKTtLrbUrORe3VoXGvzABHv79oo0gXD2LKY5m3Vvf5Dnp42agSaoc9eZP-zpnpSB713fGgcBhncqmiq1VOEr-1UGgnt30MMsttijIeZBgBmybmUjpkdrvFxbnx-f8K7VoFqQF7zLmNdzZTGlsnKnx2RobIC6eP4uccjT3eLvgTZgBXJyOMIfO5tEFV4bSQx5uGaShUX49c2msHqn22rLGLxiYymAFHoMXupDn3FNhRK2pV_-G_u59AFQSbmWEgDQeGE5VU0jw2RqM68Pp78daDUqSNlwPdqTZKMgC3inddS3wmu9Ybs59HoNMMX60jWYlKbhpPlfFklTjATm-rTDTSIs-rDwRQ7kixgqPJmtDofZUg3RQRJL-5OFs0XqHHeHbzEmZw3qd41WyiyPueQ5yM3O8lmg3kD9e4kJJDYXOlcjN7hD_lCyvx1ziQarzEMgKmS5UHpLV1viC1hwXoNC9WdIqfBpyW209pRhybIzmTTZijzwdlNxYUUkB6-iFjnEzwqDxaCsMdxagZ-oM5_Wtpwflrr7vFBVuF]--></g></svg>