<?xml version="1.0" encoding="us-ascii" standalone="no"?><svg xmlns="http://www.w3.org/2000/svg" xmlns:xlink="http://www.w3.org/1999/xlink" contentStyleType="text/css" height="379px" preserveAspectRatio="none" style="width:455px;height:379px;background:#FFFFFF;" version="1.1" viewBox="0 0 455 379" width="455px" zoomAndPan="magnify"><defs/><g><!--cluster control_plane--><g id="cluster_control_plane"><rect fill="#F7EAC9" height="87.3" rx="2.5" ry="2.5" style="stroke:#181818;stroke-width:1.0;" width="312" x="7" y="286.6213"/><path d="M123,286.6213 L123,295.9182 L113,305.9182 L7,305.9182 " fill="none" style="stroke:#181818;stroke-width:1.0;"/><text fill="#000000" font-family="sans-serif" font-size="14" font-weight="bold" lengthAdjust="spacing" textLength="106" x="10" y="300.6164">Control Plane</text></g><!--cluster worker--><g id="cluster_worker"><rect fill="#F7EAC9" height="87.3" rx="2.5" ry="2.5" style="stroke:#181818;stroke-width:1.0;" width="106" x="343" y="286.6213"/><path d="M411,286.6213 L411,295.9182 L401,305.9182 L343,305.9182 " fill="none" style="stroke:#181818;stroke-width:1.0;"/><text fill="#000000" font-family="sans-serif" font-size="14" font-weight="bold" lengthAdjust="spacing" textLength="58" x="346" y="300.6164">Worker</text></g><!--entity node_1--><g id="elem_node_1"><rect fill="#F6CBC0" height="36.2969" rx="2.5" ry="2.5" style="stroke:#181818;stroke-width:0.5;" width="70" x="23" y="321.6213"/><text fill="#000000" font-family="sans-serif" font-size="14" lengthAdjust="spacing" textLength="50" x="33" y="344.6164">Node 1</text></g><!--entity node_2--><g id="elem_node_2"><rect fill="#F6CBC0" height="36.2969" rx="2.5" ry="2.5" style="stroke:#181818;stroke-width:0.5;" width="70" x="128" y="321.6213"/><text fill="#000000" font-family="sans-serif" font-size="14" lengthAdjust="spacing" textLength="50" x="138" y="344.6164">Node 2</text></g><!--entity node_3--><g id="elem_node_3"><rect fill="#F6CBC0" height="36.2969" rx="2.5" ry="2.5" style="stroke:#181818;stroke-width:0.5;" width="70" x="233" y="321.6213"/><text fill="#000000" font-family="sans-serif" font-size="14" lengthAdjust="spacing" textLength="50" x="243" y="344.6164">Node 3</text></g><!--entity nodes--><g id="elem_nodes"><rect fill="#F6CBC0" height="32.2969" rx="2.5" ry="2.5" style="stroke:#181818;stroke-width:0.5;" width="69" x="363.5" y="325.6213"/><rect fill="#F6CBC0" height="32.2969" rx="2.5" ry="2.5" style="stroke:#181818;stroke-width:0.5;" width="69" x="359.5" y="321.6213"/><text fill="#000000" font-family="sans-serif" font-size="14" lengthAdjust="spacing" textLength="53" x="367.5" y="342.6164">Node ...</text></g><!--entity WAN--><g id="elem_WAN"><path d="M92.3489,15.1346 C95.3449,9.6128 100.9013,8.931 104.6923,14.2274 C106.9833,9.4614 112.145,7.8648 115.3196,13.3076 C119.2096,8.0597 123.2603,7.2197 127.2897,13.1585 C131.7571,7.8784 136.6633,8.5123 139.7235,14.6861 C148.5643,17.1456 149.7695,24.8268 143.426,30.7797 C148.7979,37.9135 147.9659,43.6463 138.2584,45.4789 C136.7519,52.2624 132.3824,54.0543 127.074,49.1021 C125.3888,55.734 120.7701,57.7202 115.572,52.5158 C111.3958,56.2841 106.8938,55.5231 105.1746,49.8189 C99.3324,53.3592 95.4776,51.5712 93.7538,45.1142 C83.2735,46.6537 80.3243,39.2664 83.8064,30.9796 C79.5084,21.6448 81.2142,16.1491 92.3489,15.1346 " fill="#A7E8E0" style="stroke:#181818;stroke-width:0.5;"/><text fill="#000000" font-family="sans-serif" font-size="14" lengthAdjust="spacing" textLength="32" x="99" y="34.4364">WAN</text></g><!--entity lan_1--><g id="elem_lan_1"><path d="M189.9679,14.4985 C194.1734,7.8685 199.4754,8.444 203.7054,14.472 C206.3851,9.1894 211.0214,6.9185 215.3607,12.7282 C220.439,6 224.5288,7.1986 228.7428,13.6085 C233.5254,7.9208 239.461,9.2857 241.8302,16.129 C250.8477,18.9795 251.1737,25.409 245.5892,31.7691 C251.2204,36.7856 249.4366,42.5075 242.6784,44.7445 C239.9073,51.8613 235.6949,52.7441 230.1326,47.6008 C226.3186,54.4203 222.0682,57.1407 215.7707,50.1913 C210.9447,55.5136 205.9911,55.2101 203.3233,48.0407 C197.9993,54.3087 191.757,53.1162 189.77,44.9149 C181.614,42.2975 181.2368,35.5567 187.7541,30.838 C180.7098,24.5874 182.0929,18.7277 189.9679,14.4985 " fill="#A7E8E0" style="stroke:#181818;stroke-width:0.5;"/><text fill="#000000" font-family="sans-serif" font-size="14" lengthAdjust="spacing" textLength="39" x="195.5" y="34.4364">LAN 1</text></g><!--entity lan_2--><g id="elem_lan_2"><path d="M293.9679,14.4985 C298.1734,7.8685 303.4754,8.444 307.7054,14.472 C310.3851,9.1894 315.0214,6.9185 319.3607,12.7282 C324.439,6 328.5288,7.1986 332.7428,13.6085 C337.5254,7.9208 343.461,9.2857 345.8302,16.129 C354.8477,18.9795 355.1737,25.409 349.5892,31.7691 C355.2204,36.7856 353.4366,42.5075 346.6784,44.7445 C343.9073,51.8613 339.6949,52.7441 334.1326,47.6008 C330.3186,54.4203 326.0682,57.1407 319.7707,50.1913 C314.9447,55.5136 309.9911,55.2101 307.3233,48.0407 C301.9993,54.3087 295.757,53.1162 293.77,44.9149 C285.614,42.2975 285.2368,35.5567 291.7541,30.838 C284.7098,24.5874 286.0929,18.7277 293.9679,14.4985 " fill="#A7E8E0" style="stroke:#181818;stroke-width:0.5;"/><text fill="#000000" font-family="sans-serif" font-size="14" lengthAdjust="spacing" textLength="39" x="299.5" y="34.4364">LAN 2</text></g><!--entity router--><g id="elem_router"><rect fill="#A0C5D3" height="52.5938" rx="2.5" ry="2.5" style="stroke:#181818;stroke-width:0.5;" width="219" x="105.5" y="112.7313"/><text fill="#000000" font-family="sans-serif" font-size="14" font-weight="bold" lengthAdjust="spacing" textLength="53" x="115.5" y="135.7264">Router</text><text fill="#000000" font-family="sans-serif" font-size="14" lengthAdjust="spacing" textLength="199" x="115.5" y="152.0233">(DHCP, DNS, PXE/TFTP, NTP)</text></g><!--entity switch--><g id="elem_switch"><rect fill="#A0C5D3" height="36.2969" rx="2.5" ry="2.5" style="stroke:#181818;stroke-width:0.5;" width="65" x="182.5" y="225.3313"/><text fill="#000000" font-family="sans-serif" font-size="14" lengthAdjust="spacing" textLength="45" x="192.5" y="248.3264">Switch</text></g><!--link WAN to router--><g id="link_WAN_router"><path d="M135.96,53.1113 C152.11,70.4613 174.45,94.4613 191.26,112.5213 " fill="none" id="WAN-router" style="stroke:#181818;stroke-width:1.0;"/></g><!--link lan_1 to router--><g id="link_lan_1_router"><path d="M215,53.1113 C215,70.4613 215,94.4613 215,112.5213 " fill="none" id="lan_1-router" style="stroke:#181818;stroke-width:1.0;"/></g><!--link lan_2 to router--><g id="link_lan_2_router"><path d="M297.2,53.1113 C280.4,70.4613 257.17,94.4613 239.69,112.5213 " fill="none" id="lan_2-router" style="stroke:#181818;stroke-width:1.0;"/></g><!--link router to switch--><g id="link_router_switch"><path d="M215,165.6213 C215,184.1113 215,208.6013 215,224.9213 " fill="none" id="router-switch" style="stroke:#181818;stroke-width:1.0;"/></g><!--link switch to node_1--><g id="link_switch_node_1"><path d="M182.09,250.5713 C160.58,255.6513 132.58,264.4013 111,278.6213 C94.03,289.8113 79.18,307.8013 69.55,321.1913 " fill="none" id="switch-node_1" style="stroke:#181818;stroke-width:1.0;"/></g><!--link switch to node_2--><g id="link_switch_node_2"><path d="M205.46,261.7713 C196.14,278.6813 182.02,304.2913 172.65,321.2713 " fill="none" id="switch-node_2" style="stroke:#181818;stroke-width:1.0;"/></g><!--link switch to node_3--><g id="link_switch_node_3"><path d="M224.72,261.7713 C234.22,278.6813 248.62,304.2913 258.16,321.2713 " fill="none" id="switch-node_3" style="stroke:#181818;stroke-width:1.0;"/></g><!--link switch to nodes--><g id="link_switch_nodes"><path d="M247.57,252.0513 C268.68,257.7113 296.37,266.5413 319,278.6213 C340.7,290.2013 362.52,307.9613 377.36,321.1813 " fill="none" id="switch-nodes" style="stroke:#181818;stroke-width:1.0;"/></g><!--SRC=[TP7HIyCm4CRVyrSStOl2rdKfkWbZKDCM7wIKhJ11nkYogCEQI9kn1_5_zvh6TYlwTlUxZoztNtYXZdjO1maCWcaqYpp23IbokPr0Ne7pYBE9yyUOjcFQZVDN8JMKwgX5YT1ZDw4FpmHWlbii3PsFTmlihy87bWuXJ5P3I9-YSHPds2PPUaqsrgKw7JH_Cw-iJEdyEfANClyGm9NKfIgsdxYEC3hM44XhWl9u6WNi3hxmmSRJITHUrFUWMcA9HmxYMtRFl9w4TXBwZyJl97uh-RQxdLJvZX7KIwrDURaDLqKXk3ueMLatrtLRl-hCZjIVCnhPJ4dpCPSzFUjjz0YQ-8XD4K5pRn_GFl1xeFe1]--></g></svg>